HIERARCHY
ROOT Hips
{
  OFFSET 13.6774 106.653 -34.4427
  CHANNELS 6 Xposition Yposition Zposition Zrotation Xrotation Yrotation
  JOINT ToSpine
  {
    OFFSET -2.69724 7.43032 -0.144315
    CHANNELS 3 Zrotation Xrotation Yrotation
    JOINT Spine
    {
      OFFSET -0.0310711 10.7595 1.96963
      CHANNELS 3 Zrotation Xrotation Yrotation
      JOINT Spine1
      {
        OFFSET 19.9056 3.91189 0.764692
        CHANNELS 3 Zrotation Xrotation Yrotation
        JOINT Neck
        {
          OFFSET 25.9749 7.03908 -0.130764
          CHANNELS 3 Zrotation Xrotation Yrotation
          JOINT Head
          {
            OFFSET 9.52751 0.295786 -0.907742
            CHANNELS 3 Zrotation Xrotation Yrotation
            End Site
            {
              OFFSET 16.4037 0.713936 2.7358
            }
          }
        }
        JOINT LeftShoulder
        {
          OFFSET 17.7449 4.33886 11.7777
          CHANNELS 3 Zrotation Xrotation Yrotation
          JOINT LeftArm
          {
            OFFSET 0.911315 1.27913 9.80584
            CHANNELS 3 Zrotation Xrotation Yrotation
            JOINT LeftForeArm
            {
              OFFSET 28.6126 1.18197 -3.53199
              CHANNELS 3 Zrotation Xrotation Yrotation
              JOINT LeftHand
              {
                OFFSET 27.5088 0.0218783 0.327423
                CHANNELS 3 Zrotation Xrotation Yrotation
                End Site
                {
                  OFFSET 18.6038 -0.000155887 0.382096
                }
              }
            }
          }
        }
        JOINT RightShoulder
        {
          OFFSET 17.1009 2.89543 -12.2328
          CHANNELS 3 Zrotation Xrotation Yrotation
          JOINT RightArm
          {
            OFFSET 1.4228 0.178766 -10.211
            CHANNELS 3 Zrotation Xrotation Yrotation
            JOINT RightForeArm
            {
              OFFSET 28.733 1.87905 2.64907
              CHANNELS 3 Zrotation Xrotation Yrotation
              JOINT RightHand
              {
                OFFSET 27.4588 0.290562 -0.101845
                CHANNELS 3 Zrotation Xrotation Yrotation
                End Site
                {
                  OFFSET 17.8396 -0.255518 -0.000602873
                }
              }
            }
          }
        }
      }
    }
  }
  JOINT LeftUpLeg
  {
    OFFSET -5.61296 -2.22332 -10.2353
    CHANNELS 3 Zrotation Xrotation Yrotation
    JOINT LeftLeg
    {
      OFFSET 2.56703 -44.7417 -7.93097
      CHANNELS 3 Zrotation Xrotation Yrotation
      JOINT LeftFoot
      {
        OFFSET 3.16933 -46.5642 -3.96578
        CHANNELS 3 Zrotation Xrotation Yrotation
        JOINT LeftToeBase
        {
          OFFSET 0.346054 -6.02161 12.8035
          CHANNELS 3 Zrotation Xrotation Yrotation
          End Site
          {
            OFFSET 0.134235 -1.35082 5.13018
          }
        }
      }
    }
  }
  JOINT RightUpLeg
  {
    OFFSET -5.7928 -1.72406 10.6446
    CHANNELS 3 Zrotation Xrotation Yrotation
    JOINT RightLeg
    {
      OFFSET -2.57161 -44.7178 -7.85259
      CHANNELS 3 Zrotation Xrotation Yrotation
      JOINT RightFoot
      {
        OFFSET -3.10148 -46.5936 -4.03391
        CHANNELS 3 Zrotation Xrotation Yrotation
        JOINT RightToeBase
        {
          OFFSET -0.0828122 -6.13587 12.8035
          CHANNELS 3 Zrotation Xrotation Yrotation
          End Site
          {
            OFFSET -0.131328 -1.35082 5.13018
          }
        }
      }
    }
  }
}
MOTION
Frames: 14
Frame Time: 0.03333333333333333
0.0000 93.1000 0.0000 -55.9857 -48.0993 -149.3753 -71.2118 0.0691 88.4157 97.6575 74.9962 -10.2803 0.2468 26.9499 -5.8609 -127.9743 18.9954 -172.2978 -161.7892 54.8604 -159.5269 1.0353 -11.0129 -13.8784 -127.7110 40.7680 -93.3663 14.8068 -6.7606 -111.7955 -0.3674 0.1324 0.2320 -0.7221 10.9936 10.8333 -71.1622 -53.7035 155.7731 16.8116 6.1752 109.1327 0.0036 0.0112 0.2365 -33.6820 17.7279 92.4978 -3.0728 38.0221 -2.8354 -0.8129 -0.5320 -0.9636 1.4798 -4.0596 -2.7325 -56.3437 -8.6886 77.5497 0.7635 27.9030 -3.2080 -6.1834 -5.5415 0.9796 1.6854 -19.7952 -3.9477 
0.0000 93.1000 0.0000 -59.2128 -45.6594 -152.8662 -71.2087 -0.7966 88.3902 91.1984 74.3577 -3.3114 0.9348 26.0012 -5.6530 -129.5739 19.2132 -170.8862 -160.6736 55.2079 -161.3188 0.5454 -10.7200 -14.3690 -130.0974 39.7160 -90.1421 14.1238 -6.6676 -112.6389 -0.0981 0.1855 0.0034 -1.2683 10.5353 11.9590 -67.9945 -52.8113 158.1315 17.5986 5.9188 109.3773 -0.0978 -0.0684 -0.2598 -37.2319 18.1127 92.5454 -2.2065 34.2133 -2.1229 -2.6031 1.3644 -0.0531 0.9555 -5.2244 0.6856 -56.0467 -8.7791 77.8629 -0.1771 27.2537 0.0114 -4.5158 -5.5792 0.0081 1.5788 -18.2628 -4.5353 
0.0000 93.1000 0.0000 -61.1958 -44.1765 -155.5163 -71.1470 -0.4974 88.4046 89.4902 73.6161 -1.1754 1.5407 25.3896 -5.8592 -129.6332 18.8513 -169.9801 -163.5326 55.5804 -162.1929 0.8271 -10.9461 -14.7361 -130.9255 39.2492 -88.5016 14.1052 -7.3050 -113.9009 -0.1700 -0.1136 0.4628 -1.2812 9.8471 12.7146 -65.7528 -52.6329 159.6197 16.6845 5.6506 109.0483 -0.2683 0.3082 -0.3317 -39.5093 19.1244 93.9570 -2.3417 32.3319 -1.0823 -3.7476 2.2733 0.5582 -0.2427 -4.2739 2.7609 -55.7174 -8.2196 78.8224 -0.1753 26.4199 1.9373 -6.0753 -4.9688 0.2638 1.8637 -19.4208 -2.1795 
0.0000 93.1000 0.0000 -61.8871 -42.9459 -157.0666 -71.0812 -0.1764 88.4774 86.8832 72.8463 0.6915 1.8530 24.7297 -5.4124 -130.5368 18.6675 -172.1887 -161.0152 55.4503 -165.8935 0.8978 -11.1818 -15.4190 -130.6555 39.3700 -87.7883 14.0233 -7.6538 -113.9498 -0.4504 -0.0622 0.3873 -1.0673 9.0760 14.2315 -64.6340 -50.9640 158.9644 14.2878 5.6789 109.8971 -0.1355 0.2442 0.2177 -40.8552 19.1790 95.6535 -2.4221 31.0165 -2.0130 -4.9677 1.6970 0.3485 -1.1063 -2.8443 5.0269 -56.5247 -8.1803 79.7104 -0.6427 25.4714 4.1812 -4.9747 -7.2399 0.7780 1.0852 -17.4195 -1.7879 
0.0000 93.1000 0.0000 -63.0894 -42.9989 -159.1777 -70.9797 0.1707 88.5509 84.1156 71.9834 3.8547 2.9163 23.8647 -4.4518 -130.4833 19.3840 -172.5158 -161.7439 55.8083 -164.7349 0.9740 -11.2050 -15.9858 -131.5755 38.7955 -86.2262 14.3134 -8.0874 -114.8194 -0.1638 0.1328 0.3608 -0.7695 8.7939 14.8766 -62.2096 -50.0222 159.6459 14.2607 5.5811 110.3012 0.2331 -0.0092 0.4328 -41.5451 19.7715 97.8930 -2.6124 31.1322 -5.0613 -6.1158 -0.2689 -0.0125 -0.8700 -2.4020 6.9454 -56.9700 -7.4419 79.2933 -1.5947 26.2938 2.9539 -4.5358 -8.9994 1.4491 0.8960 -14.0704 -0.7795 
0.0000 93.1000 0.0000 -64.0685 -43.1688 -160.3598 -71.0804 0.7710 88.6408 84.0513 71.8146 4.2936 3.7535 23.4188 -3.6250 -130.5427 19.7730 -173.0964 -161.3199 56.5925 -167.2028 1.3399 -11.1737 -16.7914 -131.7611 38.6906 -85.3663 14.8782 -8.8174 -115.9489 0.1775 -0.1200 -0.1767 -0.5356 8.6541 15.8360 -60.5643 -48.8391 158.9629 13.4816 5.0916 110.9121 0.3747 0.2533 0.3654 -41.7098 19.0438 99.1703 -2.9232 33.2529 -8.0749 -6.7913 -3.1554 -0.3917 -0.4195 -2.8170 5.7787 -57.2561 -6.8816 79.0012 -1.0052 27.9165 2.9506 -3.9665 -11.1975 1.9548 1.1690 -11.3414 -0.2796 
0.0000 93.1000 0.0000 -65.1671 -43.1502 -160.8441 -71.3160 0.0865 88.6478 84.1482 71.6882 4.7416 3.8662 22.9915 -3.4161 -130.7008 20.3819 -172.9311 -160.0009 56.9302 -168.3841 0.6476 -11.4989 -18.4098 -131.5598 39.0266 -84.1543 16.0332 -9.3169 -116.8515 0.0626 0.2262 0.0178 -0.8646 8.9439 16.9203 -60.2686 -48.6911 157.1129 13.6022 5.0371 111.0114 0.4815 -0.1914 0.2521 -42.0242 18.1995 98.6206 -3.0412 34.5461 -8.9362 -6.6989 -3.1309 -0.3524 0.8770 -5.9689 7.4034 -56.2067 -6.4234 79.7715 -1.2254 29.8622 3.0068 -4.4915 -11.9999 1.4547 1.5542 -10.9049 -2.2205 
0.0000 93.1000 0.0000 -66.3184 -42.4979 -161.9219 -71.2952 0.0249 88.6725 84.0352 71.9841 6.2092 4.4471 22.6379 -3.4569 -131.0311 20.3094 -171.3784 -160.5090 57.1053 -167.3109 0.7834 -10.9546 -18.4974 -131.0839 39.6195 -83.2885 17.2447 -10.1577 -118.0414 -0.0509 0.0087 -0.0323 -0.9941 9.0821 17.4884 -59.1763 -49.1223 157.2913 12.7661 5.3486 111.4343 0.3884 -0.0134 -0.0282 -43.1075 17.4340 98.4276 -3.2589 33.4802 -7.2599 -6.0727 -2.2621 -0.0549 1.3381 -7.1968 6.4764 -55.9212 -5.8016 81.1381 -1.2358 30.0247 4.1319 -4.3164 -12.7720 0.9339 1.4063 -9.3795 -2.9236 
0.0000 93.1000 0.0000 -67.0776 -41.8224 -162.7189 -71.4059 0.2143 88.6264 83.9378 72.1678 6.3066 4.9210 23.2303 -3.7349 -130.6374 20.1215 -170.7595 -160.3863 56.5274 -166.5897 0.8566 -10.7609 -18.6314 -131.0867 39.9795 -82.2739 17.2117 -10.1169 -117.8898 0.2687 0.1822 -0.0755 -0.7487 9.6026 18.5908 -58.5141 -48.7266 156.3938 13.3432 4.8746 111.5564 0.4728 -0.2649 0.1409 -43.7730 17.8345 98.2953 -2.1903 33.5665 -5.9547 -6.1486 -1.5267 -0.2858 0.7994 -6.9103 6.5350 -55.2774 -6.3130 82.2654 -1.1691 31.6386 5.1993 -3.7808 -13.9674 1.3010 1.5445 -8.4939 -4.6825 
0.0000 93.1000 0.0000 -68.2684 -41.4514 -164.0092 -71.3238 0.1422 88.6008 85.9859 71.9610 5.2300 4.4623 23.1955 -4.0487 -130.0266 20.0618 -171.7675 -158.4953 56.0227 -167.7686 0.8028 -10.7280 -18.7515 -130.9078 39.1396 -82.3066 17.7916 -10.4506 -117.9032 0.1308 0.0685 -0.1086 -0.9611 9.8250 19.1798 -58.2553 -48.6610 156.2037 13.1964 4.7893 111.2223 0.2435 -0.1007 -0.0135 -45.0985 17.9831 98.4835 -2.7229 32.8221 -4.8496 -6.4363 -1.7842 -0.1347 1.6634 -6.4051 3.5286 -54.5438 -5.5573 83.7476 -1.1700 34.1397 4.0920 -4.7029 -14.7543 1.3769 1.1546 -7.8332 -5.8107 
0.0000 93.1000 0.0000 -69.1035 -40.9743 -164.8328 -71.4241 0.3250 88.5495 86.8468 71.7264 4.2426 4.5989 23.1191 -4.1822 -129.1792 19.8614 -170.5416 -158.6344 55.5617 -168.0677 0.7886 -10.7633 -18.8312 -131.2040 38.1887 -82.0882 18.8519 -10.9246 -117.6957 -0.1310 0.2757 0.2417 -0.6417 9.9498 19.0085 -58.4149 -47.8553 155.9817 12.9104 4.5328 111.2727 0.0934 -0.2731 0.4208 -45.8159 17.8088 98.5326 -2.7159 32.4197 -5.0025 -5.6401 -1.5984 -0.5104 1.9969 -6.7151 3.3374 -54.1504 -4.9555 86.9739 -0.8467 35.1159 1.9427 -5.7012 -15.2625 1.7339 1.3322 -8.7306 -7.0374 
0.0000 93.1000 0.0000 -69.1501 -41.4564 -165.8532 -71.3922 0.2719 88.5135 86.5519 71.8934 3.8874 4.4590 23.1375 -3.6803 -129.0354 20.1974 -170.3569 -158.3280 55.7430 -166.9700 0.8129 -10.8580 -18.8973 -130.8414 37.8381 -82.3545 18.6825 -11.3936 -117.6081 0.0187 0.0267 0.2889 -0.8404 10.0643 19.5230 -59.4781 -47.8701 155.1822 12.1102 4.8437 111.5476 -0.1517 -0.0064 0.1412 -46.0075 17.3818 98.5532 -2.2069 32.6325 -4.4178 -5.9108 -1.1033 -0.1965 2.4483 -7.2711 2.8318 -53.2120 -4.2780 89.6396 0.1580 37.0744 0.0783 -6.4667 -16.0603 1.5936 1.8581 -11.1418 -9.2989 
0.0000 93.1000 0.0000 -68.8605 -41.8292 -166.1032 -71.4864 -0.4249 88.5476 85.8852 71.8612 4.5204 4.4186 23.2941 -3.8347 -129.1924 20.3758 -171.0120 -158.5078 55.7354 -166.4969 0.3492 -10.9881 -19.0780 -130.6514 36.9081 -82.3262 17.1082 -10.5260 -117.5173 -0.2002 0.1709 0.4083 -1.3245 10.2292 18.8936 -59.5915 -47.9423 155.2577 12.3255 4.4308 110.9598 -0.2485 -0.1761 0.0655 -45.9404 16.9336 98.7708 -2.2036 32.3245 -4.4627 -5.0044 -0.2427 0.0734 2.4260 -8.1329 3.3876 -52.9499 -4.5158 90.3136 0.7241 37.7759 -1.5867 -6.6752 -15.6870 0.9312 1.8365 -11.4992 -9.9908 
0.0000 93.1000 0.0000 -69.4378 -41.8345 -165.7247 -71.3753 -0.2625 88.5472 86.0882 71.8557 5.1517 4.7487 23.0942 -3.8225 -129.3316 20.2033 -170.1956 -157.6356 55.7966 -168.3406 0.2862 -11.5674 -19.6305 -131.1544 36.6178 -82.5118 17.6269 -10.2142 -116.9612 -0.1389 -0.0677 0.0137 -1.3549 10.1590 18.0503 -59.7101 -48.0613 155.3506 11.8844 5.3897 111.2938 -0.0769 0.0826 -0.1751 -45.5084 16.5249 98.5851 -2.2778 31.4524 -4.8922 -4.7028 0.1410 0.1327 1.8193 -7.6789 4.4401 -53.1972 -4.9270 90.3848 1.1230 38.0853 -0.8811 -7.6535 -15.6785 1.0849 1.9278 -11.4542 -11.0222 
